<?xml version="1.0" encoding="UTF-8"?><svg xmlns="http://www.w3.org/2000/svg" xmlns:xlink="http://www.w3.org/1999/xlink" width="375pt" zoomAndPan="magnify" viewBox="0 0 375 374.999991" height="374.999991pt" preserveAspectRatio="xMidYMid meet" version="1.2"><defs><clipPath xml:id="clip1" id="clip1"><path d="M 5.453125 77 L 133 77 L 133 298 L 5.453125 298 Z M 5.453125 77 "/></clipPath><clipPath xml:id="clip2" id="clip2"><path d="M 364.660156 153.660156 L 191.394531 153.660156 L 191.394531 225.566406 L 291.128906 225.566406 C 281.832031 271.25 242.953125 297.476562 191.394531 297.476562 C 130.542969 297.476562 81.523438 248.410156 81.523438 187.5 C 81.523438 126.589844 130.542969 77.519531 191.394531 77.519531 C 217.597656 77.519531 241.261719 86.828125 259.855469 102.054688 L 313.949219 47.910156 C 280.988281 19.148438 238.726562 1.382812 191.394531 1.382812 C 88.28125 1.382812 5.453125 84.289062 5.453125 187.5 C 5.453125 290.707031 88.28125 373.613281 191.394531 373.613281 C 284.367188 373.613281 368.886719 305.9375 368.886719 187.5 C 368.886719 176.5 367.195312 164.65625 364.660156 153.660156 Z M 364.660156 153.660156 "/></clipPath><clipPath xml:id="clip3" id="clip3"><path d="M 5.453125 1 L 368.886719 1 L 368.886719 188 L 5.453125 188 Z M 5.453125 1 "/></clipPath><clipPath xml:id="clip4" id="clip4"><path d="M 364.660156 153.660156 L 191.394531 153.660156 L 191.394531 225.566406 L 291.128906 225.566406 C 281.832031 271.25 242.953125 297.476562 191.394531 297.476562 C 130.542969 297.476562 81.523438 248.410156 81.523438 187.5 C 81.523438 126.589844 130.542969 77.519531 191.394531 77.519531 C 217.597656 77.519531 241.261719 86.828125 259.855469 102.054688 L 313.949219 47.910156 C 280.988281 19.148438 238.726562 1.382812 191.394531 1.382812 C 88.28125 1.382812 5.453125 84.289062 5.453125 187.5 C 5.453125 290.707031 88.28125 373.613281 191.394531 373.613281 C 284.367188 373.613281 368.886719 305.9375 368.886719 187.5 C 368.886719 176.5 367.195312 164.65625 364.660156 153.660156 Z M 364.660156 153.660156 "/></clipPath><clipPath xml:id="clip5" id="clip5"><path d="M 5.453125 1 L 368.886719 1 L 368.886719 373.613281 L 5.453125 373.613281 Z M 5.453125 1 "/></clipPath><clipPath xml:id="clip6" id="clip6"><path d="M 364.660156 153.660156 L 191.394531 153.660156 L 191.394531 225.566406 L 291.128906 225.566406 C 281.832031 271.25 242.953125 297.476562 191.394531 297.476562 C 130.542969 297.476562 81.523438 248.410156 81.523438 187.5 C 81.523438 126.589844 130.542969 77.519531 191.394531 77.519531 C 217.597656 77.519531 241.261719 86.828125 259.855469 102.054688 L 313.949219 47.910156 C 280.988281 19.148438 238.726562 1.382812 191.394531 1.382812 C 88.28125 1.382812 5.453125 84.289062 5.453125 187.5 C 5.453125 290.707031 88.28125 373.613281 191.394531 373.613281 C 284.367188 373.613281 368.886719 305.9375 368.886719 187.5 C 368.886719 176.5 367.195312 164.65625 364.660156 153.660156 Z M 364.660156 153.660156 "/></clipPath><clipPath xml:id="clip7" id="clip7"><path d="M 98 77 L 368.886719 77 L 368.886719 373.613281 L 98 373.613281 Z M 98 77 "/></clipPath><clipPath xml:id="clip8" id="clip8"><path d="M 364.660156 153.660156 L 191.394531 153.660156 L 191.394531 225.566406 L 291.128906 225.566406 C 281.832031 271.25 242.953125 297.476562 191.394531 297.476562 C 130.542969 297.476562 81.523438 248.410156 81.523438 187.5 C 81.523438 126.589844 130.542969 77.519531 191.394531 77.519531 C 217.597656 77.519531 241.261719 86.828125 259.855469 102.054688 L 313.949219 47.910156 C 280.988281 19.148438 238.726562 1.382812 191.394531 1.382812 C 88.28125 1.382812 5.453125 84.289062 5.453125 187.5 C 5.453125 290.707031 88.28125 373.613281 191.394531 373.613281 C 284.367188 373.613281 368.886719 305.9375 368.886719 187.5 C 368.886719 176.5 367.195312 164.65625 364.660156 153.660156 Z M 364.660156 153.660156 "/></clipPath></defs><g xml:id="surface1" id="surface1"><g clip-rule="nonzero" clip-path="url(#clip1)"><g clip-rule="nonzero" clip-path="url(#clip2)"><path style=" stroke:none;fill-rule:nonzero;fill:rgb(98.429871%,73.728943%,1.959229%);fill-opacity:1;" d="M -11.449219 297.476562 L -11.449219 77.519531 L 132.234375 187.5 Z M -11.449219 297.476562 "/></g></g><g clip-rule="nonzero" clip-path="url(#clip3)"><g clip-rule="nonzero" clip-path="url(#clip4)"><path style=" stroke:none;fill-rule:nonzero;fill:rgb(91.758728%,26.269531%,20.779419%);fill-opacity:1;" d="M -11.449219 77.519531 L 132.234375 187.5 L 191.394531 135.894531 L 394.242188 102.902344 L 394.242188 -15.535156 L -11.449219 -15.535156 Z M -11.449219 77.519531 "/></g></g><g clip-rule="nonzero" clip-path="url(#clip5)"><g clip-rule="nonzero" clip-path="url(#clip6)"><path style=" stroke:none;fill-rule:nonzero;fill:rgb(20.388794%,65.879822%,32.548523%);fill-opacity:1;" d="M -11.449219 297.476562 L 242.109375 102.902344 L 308.878906 111.359375 L 394.242188 -15.535156 L 394.242188 390.535156 L -11.449219 390.535156 Z M -11.449219 297.476562 "/></g></g><g clip-rule="nonzero" clip-path="url(#clip7)"><g clip-rule="nonzero" clip-path="url(#clip8)"><path style=" stroke:none;fill-rule:nonzero;fill:rgb(25.878906%,52.159119%,95.689392%);fill-opacity:1;" d="M 394.242188 390.535156 L 132.234375 187.5 L 98.425781 162.121094 L 394.242188 77.519531 Z M 394.242188 390.535156 "/></g></g></g></svg>